<svg width="209" height="141" viewBox="0 0 209 141" fill="none" xmlns="http://www.w3.org/2000/svg">
<path d="M0 119.385L41.4909 119.385" stroke="#FFFFFF" stroke-width="8"/>
<path d="M20.7437 98.6382V140.129" stroke="#FFFFFF" stroke-width="8"/>
<path d="M55.582 119.385L97.0729 119.385" stroke="#FFFFFF" stroke-width="8"/>
<path d="M76.3257 98.6382V140.129" stroke="#FFFFFF" stroke-width="8"/>
<path d="M111.164 119.385L152.655 119.385" stroke="#FFFFFF" stroke-width="8"/>
<path d="M131.907 98.6382V140.129" stroke="#FFFFFF" stroke-width="8"/>
<path d="M166.746 119.385L208.237 119.385" stroke="#FFFFFF" stroke-width="8"/>
<path d="M187.49 98.6382V140.129" stroke="#FFFFFF" stroke-width="8"/>
<path d="M0 70.0658L41.4909 70.0658" stroke="#FFFFFF" stroke-width="8"/>
<path d="M20.7437 49.3188V90.8097" stroke="#FFFFFF" stroke-width="8"/>
<path d="M55.582 70.0658L97.0729 70.0658" stroke="#FFFFFF" stroke-width="8"/>
<path d="M76.3257 49.3188V90.8097" stroke="#FFFFFF" stroke-width="8"/>
<path d="M111.164 70.0658L152.655 70.0658" stroke="#FFFFFF" stroke-width="8"/>
<path d="M131.907 49.3188V90.8097" stroke="#FFFFFF" stroke-width="8"/>
<path d="M111.164 20.7469L152.655 20.7469" stroke="#FFFFFF" stroke-width="8"/>
<path d="M131.907 0V41.4909" stroke="#FFFFFF" stroke-width="8"/>
<path d="M166.746 70.0658L208.237 70.0658" stroke="#FFFFFF" stroke-width="8"/>
<path d="M187.49 49.3188V90.8097" stroke="#FFFFFF" stroke-width="8"/>
<path d="M166.746 20.7469L208.237 20.7469" stroke="#FFFFFF" stroke-width="8"/>
<path d="M187.49 0V41.4909" stroke="#FFFFFF" stroke-width="8"/>
</svg>
