<svg width="91" height="209" viewBox="0 0 91 209" fill="none" xmlns="http://www.w3.org/2000/svg">
<path d="M20.7439 0V41.4909" stroke="white" stroke-width="6"/>
<path d="M41.4908 20.7437L-4.55976e-05 20.7437" stroke="white" stroke-width="6"/>
<g opacity="0.25">
<path d="M20.7439 55.582V97.0729" stroke="white" stroke-width="6"/>
<path d="M41.4908 76.3257L-4.55976e-05 76.3257" stroke="white" stroke-width="6"/>
</g>
<g opacity="0.25">
<path d="M20.7439 111.164V152.655" stroke="white" stroke-width="6"/>
<path d="M41.4908 131.908L-4.55976e-05 131.908" stroke="white" stroke-width="6"/>
</g>
<path d="M20.7439 166.746V208.237" stroke="#FFB100" stroke-width="6"/>
<path d="M41.4908 187.49L-4.55976e-05 187.49" stroke="#FFB100" stroke-width="6"/>
<path d="M70.0632 0V41.4909" stroke="#FFB100" stroke-width="6"/>
<path d="M90.8103 20.7437L49.3194 20.7437" stroke="#FFB100" stroke-width="6"/>
<path d="M70.0632 55.582V97.0729" stroke="#FFB100" stroke-width="6"/>
<path d="M90.8103 76.3257L49.3194 76.3257" stroke="#FFB100" stroke-width="6"/>
<path d="M70.0632 111.164V152.655" stroke="white" stroke-width="6"/>
<path d="M90.8103 131.908L49.3194 131.908" stroke="white" stroke-width="6"/>
<path d="M70.0632 166.746V208.237" stroke="white" stroke-width="6"/>
<path d="M90.8103 187.49L49.3194 187.49" stroke="white" stroke-width="6"/>
</svg>
